<?xml version="1.0" standalone="no"?>
<!DOCTYPE svg PUBLIC "-//W3C//DTD SVG 20010904//EN"
 "http://www.w3.org/TR/2001/REC-SVG-20010904/DTD/svg10.dtd">
<svg version="1.0" xmlns="http://www.w3.org/2000/svg"
 width="260.000000pt" height="260.000000pt" viewBox="0 0 260.000000 260.000000"
 preserveAspectRatio="xMidYMid meet">
<metadata>
Created by potrace 1.11, written by Peter Selinger 2001-2013
</metadata>
<g transform="translate(0.000000,260.000000) scale(0.100000,-0.100000)"
fill="#000000" stroke="none">
<path d="M206 2309 l-140 -140 77 -77 77 -77 0 -720 0 -720 -74 -75 -74 -75
136 -143 137 -142 245 0 246 0 207 209 207 209 0 734 0 734 -208 212 -209 212
-244 0 -244 -1 -139 -140z m693 -1014 l1 -531 -152 -145 c-84 -81 -157 -146
-161 -145 -6 1 -12 1438 -7 1655 0 2 72 -65 159 -150 l159 -154 1 -530z"/>
<path d="M1762 2207 l-242 -242 0 -680 0 -680 234 -234 234 -234 267 264 266
263 -131 131 -131 130 -142 -148 c-78 -81 -146 -147 -152 -147 -5 0 -28 21
-52 47 l-43 46 0 671 0 671 196 -198 195 -197 135 132 135 132 -258 258 c-142
142 -260 258 -263 258 -3 0 -114 -109 -248 -243z"/>
</g>
</svg>
